# This file uses centimeters as units for non-parametric coordinates.

mtllib Arrow.mtl
g default
v -0.283569 0.482909 0.345836
v 0.023249 0.482909 0.345836
v -0.283569 0.500000 0.345836
v 0.023249 0.500000 0.345836
v -0.283569 0.500000 0.156767
v 0.023249 0.500000 0.156767
v -0.283569 0.482909 0.156767
v 0.023249 0.482909 0.156767
v 0.262324 0.482909 0.256999
v 0.262324 0.500000 0.256999
v 0.023249 0.482909 0.473233
v 0.023249 0.500000 0.473233
v 0.023249 0.500000 0.010410
v 0.023249 0.482909 0.010410
vt 0.375000 0.000000
vt 0.625000 0.000000
vt 0.375000 0.250000
vt 0.625000 0.250000
vt 0.375000 0.500000
vt 0.625000 0.500000
vt 0.375000 0.750000
vt 0.625000 0.750000
vt 0.375000 1.000000
vt 0.625000 1.000000
vt 0.875000 0.000000
vt 0.875000 0.250000
vt 0.125000 0.000000
vt 0.125000 0.250000
vt 0.802647 0.022919
vt 0.808188 0.235003
vt 0.625000 0.250000
vt 0.625000 0.000000
vt 0.875000 0.000000
vt 0.875000 0.250000
vn 0.000000 0.000000 1.000000
vn 0.000000 0.000000 1.000000
vn 0.000000 0.000000 1.000000
vn 0.000000 0.000000 1.000000
vn 0.000000 1.000000 0.000000
vn 0.000000 1.000000 0.000000
vn 0.000000 1.000000 0.000000
vn 0.000000 1.000000 0.000000
vn 0.000000 0.000000 -1.000000
vn 0.000000 0.000000 -1.000000
vn 0.000000 0.000000 -1.000000
vn 0.000000 0.000000 -1.000000
vn 0.000000 -1.000000 0.000000
vn 0.000000 -1.000000 0.000000
vn 0.000000 -1.000000 0.000000
vn 0.000000 -1.000000 0.000000
vn -1.000000 0.000000 0.000000
vn -1.000000 0.000000 0.000000
vn -1.000000 0.000000 0.000000
vn -1.000000 0.000000 0.000000
vn 0.000000 -1.000000 0.000000
vn 0.717961 0.000000 -0.696083
vn 0.717961 0.000000 -0.696083
vn 1.000000 0.000000 0.000000
vn 1.000000 0.000000 0.000000
vn 0.000000 1.000000 0.000000
vn 0.670791 0.000000 0.741647
vn 0.670791 0.000000 0.741647
vn -1.000000 0.000000 0.000000
vn -1.000000 0.000000 0.000000
vn -1.000000 0.000000 0.000000
vn -1.000000 0.000000 0.000000
vn 0.000000 -1.000000 0.000000
vn 0.000000 1.000000 0.000000
vn -1.000000 0.000000 0.000000
vn -1.000000 0.000000 0.000000
vn -1.000000 0.000000 0.000000
vn -1.000000 0.000000 0.000000
vn 0.000000 1.000000 0.000000
vn 0.000000 -1.000000 0.000000
s off
g pCube1
usemtl initialShadingGroup
f 1/1/1 2/2/2 4/4/3 3/3/4
s 1
f 3/3/5 4/4/6 6/6/7 5/5/8
s off
f 5/5/9 6/6/10 8/8/11 7/7/12
s 2
f 7/7/13 8/8/14 2/10/15 1/9/16
s off
f 7/13/17 1/1/18 3/3/19 5/14/20
s 2
f 2/2/15 8/11/14 9/15/21
s 3
f 14/19/22 13/20/23 10/16/24 9/15/25
s 1
f 6/12/7 4/4/6 10/16/26
s 3
f 12/17/27 11/18/28 9/15/25 10/16/24
s off
f 4/4/29 2/2/30 11/18/31 12/17/32
s 2
f 2/2/15 9/15/21 11/18/33
s 1
f 10/16/26 4/4/6 12/17/34
s off
f 8/11/35 6/12/36 13/20/37 14/19/38
s 1
f 6/12/7 10/16/26 13/20/39
s 2
f 9/15/21 8/11/14 14/19/40
